<?xml version="1.0" encoding="utf-8"?>
<!-- Generator: Adobe Illustrator 16.0.0, SVG Export Plug-In . SVG Version: 6.00 Build 0)  -->
<!DOCTYPE svg PUBLIC "-//W3C//DTD SVG 1.1//EN" "http://www.w3.org/Graphics/SVG/1.1/DTD/svg11.dtd">
<svg version="1.1" id="svg2" xmlns:svg="http://www.w3.org/2000/svg"
	 xmlns="http://www.w3.org/2000/svg" xmlns:xlink="http://www.w3.org/1999/xlink" x="0px" y="0px" width="971.957px"
	 height="971.957px" viewBox="0 0 971.957 971.957" enable-background="new 0 0 971.957 971.957" xml:space="preserve">
<g id="g12" transform="matrix(1.25,0,0,-1.25,553.84735,1103.1974)">
	<path id="path46" fill="#F5821F" d="M-443.078,104.992h777.566v777.566h-777.566V104.992L-443.078,104.992z"/>
	<g id="g48" transform="matrix(10.550276,0,0,10.550276,19.193008,758.32838)">
		<path id="path50" d="M0,0l-0.782-0.004l0.007-1.974c-0.008-0.609-3.143-0.609-3.133,0l0.004,3.916l-0.725-0.017l0.001-4.508
			c0.004-0.854,4.621-0.828,4.646,0L0,0"/>
	</g>
	<g id="g52" transform="matrix(10.550276,0,0,10.550276,-170.31094,777.16062)">
		<path id="path54" d="M0,0h0.878L0.866-4.372h-0.868L0,0"/>
	</g>
	<g id="g56" transform="matrix(10.550276,0,0,10.550276,-185.02868,781.92935)">
		<path id="path58" d="M0,0l0.009-0.716c-2.225,0.003-3.952-0.067-4.543-1.4c1.517-0.161,2.944-0.638,4.272-1.258
			c0.572-0.398,0.895-1.45-0.799-1.937L-6.592-5.29C-7.02-5.324-7.666-4.658-7.77-4.215h0.645c0.173-0.349,0.428-0.326,0.664-0.404
			h5.063c1.073,0.19,0.944,0.633,0.529,0.866C-2.157-3.268-3.419-2.84-5.17-2.54c-0.463,0.08-0.618,0.167-0.563,0.408
			C-4.77-0.219-2.796,0.088,0,0"/>
	</g>
	<path id="path60" d="M10.668,767.307h8.651v8.303h-8.651V767.307z"/>
	<g id="g62" transform="matrix(10.550276,0,0,10.550276,125.29713,267.78276)">
		<path id="path64" d="M0,0v-1.441c0.143,0.149,0.31,0.259,0.494,0.332c0.187,0.072,0.4,0.108,0.638,0.108
			c0.528,0,0.934-0.126,1.218-0.38c0.281-0.252,0.423-0.616,0.423-1.092v-1.891H1.787v1.454c0,0.451-0.065,0.757-0.195,0.918
			C1.462-1.831,1.236-1.75,0.913-1.75c-0.329,0-0.566-0.091-0.709-0.272c-0.143-0.181-0.216-0.491-0.216-0.93v-1.412h-0.951V0H0z
			 M-3.158-2.239c-0.118,0.172-0.27,0.3-0.452,0.387c-0.184,0.085-0.402,0.129-0.654,0.129c-0.334,0-0.614-0.095-0.838-0.281
			c-0.225-0.189-0.337-0.425-0.337-0.709c0-0.28,0.114-0.512,0.344-0.699C-4.864-3.597-4.577-3.69-4.229-3.69
			c0.266,0,0.489,0.045,0.666,0.133c0.177,0.089,0.31,0.222,0.397,0.4h1.051c-0.129-0.403-0.377-0.721-0.751-0.95
			c-0.373-0.23-0.824-0.344-1.356-0.344c-0.312,0-0.602,0.043-0.87,0.13C-5.36-4.234-5.601-4.105-5.816-3.935
			c-0.2,0.159-0.356,0.346-0.469,0.561C-6.398-3.159-6.456-2.941-6.456-2.72c0,0.232,0.052,0.449,0.155,0.651
			c0.102,0.202,0.254,0.384,0.454,0.546c0.221,0.182,0.47,0.319,0.748,0.412c0.278,0.095,0.575,0.142,0.893,0.142
			c0.519,0,0.969-0.115,1.348-0.345c0.382-0.228,0.63-0.538,0.752-0.925H-3.158z M-8.483-4.364v0.405
			C-8.601-4.123-8.766-4.245-8.98-4.323C-9.194-4.4-9.469-4.438-9.804-4.438c-0.626,0-1.148,0.166-1.567,0.498
			C-11.79-3.608-12-3.194-12-2.7c0,0.231,0.052,0.452,0.157,0.659c0.104,0.208,0.255,0.392,0.45,0.548
			c0.211,0.174,0.445,0.302,0.701,0.386c0.256,0.082,0.545,0.124,0.866,0.124c0.308,0,0.574-0.04,0.796-0.12
			c0.222-0.079,0.402-0.2,0.536-0.363v0.399h0.964v-3.297H-8.483z M-10.991-2.688c0-0.278,0.118-0.51,0.356-0.697
			c0.237-0.187,0.526-0.28,0.869-0.28c0.309,0,0.582,0.094,0.818,0.281c0.236,0.188,0.354,0.408,0.354,0.659
			c0,0.269-0.118,0.499-0.356,0.691c-0.237,0.193-0.516,0.29-0.834,0.29c-0.332,0-0.617-0.091-0.853-0.274
			C-10.873-2.201-10.991-2.424-10.991-2.688z M-12.599-1.735c-0.383-0.023-0.649-0.103-0.801-0.234
			c-0.15-0.133-0.227-0.37-0.227-0.713v-1.682h-0.986v3.297h0.924v-0.381c0.149,0.149,0.311,0.257,0.489,0.326
			c0.177,0.068,0.377,0.103,0.601,0.103V-1.735z M-17.145-4.364v2.614h-0.647v0.683h0.647V0h0.986v-1.067h0.65V-1.75h-0.65v-2.614
			H-17.145z M-19.726-4.364v0.405c-0.118-0.164-0.284-0.286-0.497-0.364c-0.215-0.077-0.49-0.115-0.824-0.115
			c-0.626,0-1.148,0.166-1.567,0.498c-0.419,0.332-0.631,0.746-0.631,1.24c0,0.231,0.054,0.452,0.159,0.659
			c0.105,0.208,0.253,0.392,0.45,0.548c0.211,0.174,0.444,0.302,0.701,0.386c0.256,0.082,0.545,0.124,0.867,0.124
			c0.307,0,0.572-0.04,0.795-0.12c0.221-0.079,0.4-0.2,0.536-0.363v0.399h0.963v-3.297H-19.726L-19.726-4.364z M-22.235-2.688
			c0-0.278,0.118-0.51,0.357-0.697c0.235-0.187,0.526-0.28,0.867-0.28c0.309,0,0.583,0.094,0.82,0.281
			c0.236,0.188,0.354,0.408,0.354,0.659c0,0.269-0.118,0.499-0.357,0.691c-0.237,0.193-0.515,0.29-0.833,0.29
			c-0.332,0-0.618-0.091-0.854-0.274C-22.117-2.201-22.235-2.424-22.235-2.688z M-27.076-1.067v-0.374
			c0.143,0.149,0.309,0.259,0.495,0.332c0.186,0.072,0.397,0.108,0.637,0.108c0.305,0,0.571-0.046,0.8-0.136
			c0.227-0.09,0.415-0.224,0.566-0.403c0.099-0.12,0.168-0.257,0.21-0.409c0.043-0.153,0.064-0.377,0.064-0.671v-1.744h-0.986v1.46
			c0,0.442-0.066,0.744-0.196,0.908c-0.131,0.164-0.358,0.246-0.678,0.246c-0.329,0-0.565-0.091-0.708-0.272
			c-0.143-0.181-0.215-0.491-0.215-0.93v-1.412h-0.953v3.297H-27.076z M-33.562-2.7c0,0.231,0.056,0.452,0.166,0.66
			c0.107,0.209,0.266,0.394,0.473,0.556c0.214,0.165,0.454,0.293,0.722,0.382c0.266,0.089,0.543,0.133,0.831,0.133
			c0.305,0,0.587-0.039,0.846-0.119c0.256-0.078,0.496-0.197,0.71-0.355c0.221-0.165,0.393-0.356,0.512-0.573
			c0.121-0.217,0.18-0.44,0.18-0.667c0-0.252-0.052-0.481-0.157-0.689c-0.104-0.208-0.262-0.396-0.473-0.563
			c-0.211-0.17-0.451-0.299-0.72-0.386c-0.269-0.087-0.563-0.13-0.878-0.13c-0.319,0-0.61,0.043-0.87,0.132
			c-0.263,0.087-0.5,0.22-0.717,0.395c-0.206,0.172-0.362,0.362-0.466,0.568C-33.509-3.149-33.562-2.931-33.562-2.7z M-32.545-2.695
			c0-0.306,0.108-0.548,0.323-0.727c0.216-0.18,0.509-0.268,0.878-0.268c0.366,0,0.656,0.091,0.873,0.274
			c0.217,0.183,0.327,0.43,0.327,0.739c0,0.278-0.114,0.506-0.341,0.685c-0.227,0.18-0.515,0.269-0.859,0.269
			c-0.353,0-0.642-0.091-0.866-0.273C-32.433-2.176-32.545-2.41-32.545-2.695L-32.545-2.695z M-36.331-3.27v-0.046
			c0-0.144,0.048-0.264,0.142-0.354c0.097-0.091,0.22-0.137,0.37-0.137c0.145,0,0.263,0.034,0.354,0.103
			c0.09,0.068,0.136,0.155,0.136,0.26c0,0.097-0.033,0.179-0.101,0.241c-0.065,0.062-0.185,0.126-0.359,0.19
			c-0.098,0.034-0.241,0.081-0.431,0.142c-0.19,0.059-0.312,0.106-0.365,0.139c-0.158,0.101-0.272,0.212-0.346,0.335
			c-0.075,0.123-0.113,0.264-0.113,0.422c0,0.278,0.125,0.512,0.376,0.704s0.554,0.288,0.91,0.288c0.377,0,0.675-0.085,0.896-0.255
			c0.219-0.17,0.34-0.408,0.36-0.714h-0.886v0.019c0,0.105-0.035,0.188-0.106,0.248c-0.071,0.061-0.169,0.09-0.295,0.09
			c-0.109,0-0.202-0.029-0.274-0.088c-0.074-0.059-0.11-0.133-0.11-0.221c0-0.144,0.189-0.278,0.569-0.402
			c0.1-0.032,0.177-0.056,0.232-0.075c0.364-0.127,0.613-0.264,0.747-0.412c0.133-0.146,0.2-0.344,0.2-0.594
			c0-0.308-0.135-0.562-0.401-0.763c-0.266-0.201-0.604-0.301-1.009-0.301c-0.408,0-0.737,0.105-0.987,0.317
			c-0.25,0.211-0.386,0.499-0.411,0.86L-36.331-3.27"/>
	</g>
	<g id="g66" transform="matrix(10.550276,0,0,10.550276,-109.82642,733.59864)">
		<path id="path68" d="M0,0h4.963c1.825,0.15,0.569,2.434-0.689,2.065C2.562,1.557,1.145,0.938,0,0z M-1.54,4.147l0.821,0.012
			l-0.02-3.406c1.991,1.409,4.08,2.083,6.125,1.978c1.033-0.055,2.413-2.975-0.553-3.462h-7.809C-3.421-1.8-4.203-2.532-5.321-2.936
			l-0.014,0.849C-4.358-1.724-3.74-0.881-3.431,0.37l-0.01,1.968h0.69l0.005-1.971h1.203L-1.54,4.147"/>
	</g>
	<g id="g70" transform="matrix(10.550276,0,0,10.550276,56.023915,752.95829)">
		<path id="path72" d="M0,0c0.885,0,1.605-0.33,1.605-0.737c0-0.401-0.72-0.731-1.605-0.731c-0.882,0-1.602,0.33-1.602,0.731
			C-1.602-0.33-0.882,0,0,0z M10.136,0.502H9.333v-1.967c0-0.614-1.802-0.614-1.802-0.003v1.97H6.62v-1.97
			c0-0.611-1.86-0.611-1.86,0v1.97H3.902v-1.97C3.867-1.723,3.295-2.128,2.52-2.094C2.501-1.16,2.358,0.502,0.762,0.502
			c-1.603,0-2.883,0-3.097-0.864c-0.156-0.852,0.308-1.717,1.79-1.717c0.811-0.07,1.574-0.01,2.305,0.142
			c-0.152-1.062-0.745-1.69-1.787-2.017l0.004-0.848c1.168,0.42,2.092,1.076,2.371,2.047c0.571,0,1.163,0.15,1.566,0.649H4.76
			c0.675-0.489,1.263-0.46,1.86,0.027h0.818c0.108,0,0.047-0.343,1.186-0.32c1.468,0.025,1.512,0.884,1.512,0.931V0.502"/>
	</g>
	<g id="g74" transform="matrix(10.550276,0,0,10.550276,158.29829,610.25526)">
		<path id="path76" d="M0,0l0.011,7.904l-36.997,0.119c-2.51-0.119-3.326-0.935-3.326-3.385V-7.546c0-1.704,0.754-2.827,3.833-2.827
			h27.861c0.675,0,0.723-1.443,0-1.443h-31.694v-8.18h15.688v-2.183h-15.688l0.11-7.875l40.213-0.049v7.924H-15.28v2.183h12.741
			c1.567,0,2.55,0.817,2.55,2.519v12.469c0,2.415-0.821,3.258-3.152,3.258h-28.092c-0.8,0-0.807,1.481,0.004,1.481h31.24L0,0"/>
	</g>
</g>
</svg>
